<svg version="1.1" id="Capa_1" xmlns="http://www.w3.org/2000/svg" viewBox="-314 116 330 330"><path fill="#ffffff" d="M-271.6,380.2h40.3v40.3c0,7.4,6,13.4,13.4,13.4h179.3c7.4,0,13.4-6,13.4-13.4V205.4c0-7.4-6-13.4-13.4-13.4h-40.3v-40.3		c0-7.4-6-13.4-13.4-13.4h-179.3c-7.4,0-13.4,6-13.4,13.4v215.2C-285,374.2-279,380.2-271.6,380.2z M-51.9,407.1h-152.4V218.8h152.4 V407.1z M-258.1,165h152.4v26.9h-112.1c-7.4,0-13.4,6-13.4,13.4v147.9h-26.9V165z"/><path fill="#ffffff" d="M-164,245.7c-7.4,0-13.4,6-13.4,13.4c0,7.4,6,13.4,13.4,13.4h71.7c7.4,0,13.4-6,13.4-13.4c0-7.4-6-13.4-13.4-13.4H-164z"/> <path fill="#ffffff" d="M-92.2,299.5H-164c-7.4,0-13.4,6-13.4,13.4s6,13.4,13.4,13.4h71.7c7.4,0,13.4-6,13.4-13.4S-84.8,299.5-92.2,299.5z"/> <path fill="#ffffff" d="M-92.2,353.3H-164c-7.4,0-13.4,6-13.4,13.4c0,7.4,6,13.4,13.4,13.4h71.7c7.4,0,13.4-6,13.4-13.4 C-78.8,359.3-84.8,353.3-92.2,353.3z"/></svg>