<svg version="1.1" id="Layer_1" xmlns="http://www.w3.org/2000/svg" viewBox="83 -82 225 225"><path d="M125,13.5V88h33.6h33.5l4.6,4.3c14,13.3,34,16.3,51.8,7.8c7.6-3.6,16.9-12.9,20.5-20.5c4.7-9.9,5.9-19.2,3.7-29.5 	c-2.8-13.7-11.6-25.1-24.1-31.3c-3.7-1.9-7.2-3.3-7.7-3.3c-1,0-1.1-3.4-1.1-19.4v-19.3l-19-19L201.9-61h-38.5H125V13.5z M194.2-32.5	v17.1h17.1h17.1v14.6v14.5l-5.6,0.5c-3.6,0.3-7.6,1.3-10.8,2.8l-5.1,2.3l-26.6,0.2l-26.7,0.2v5.2v5.3h19.6h19.6l-1.8,2.6	c-0.9,1.5-2.5,4.2-3.5,6.1l-1.7,3.5h-16.1h-16.2l0.2,5.5l0.2,5.5l14.5,0.2l14.4,0.2v6.4c0,4.1,0.6,8.3,1.5,11.4l1.5,5h-24.7h-24.7	V13.5v-63.1h28.9h28.9V-32.5z M212.9-33.7l6.9,6.9h-7.6h-7.5v-6.9c0-3.8,0.2-6.9,0.7-6.9C205.7-40.7,209.1-37.6,212.9-33.7z	 M237.7,26.3c13,3.3,23.6,16.5,24.6,30.7c1.8,25.7-25,44.4-48.2,33.5C192.2,80.2,187,51.9,204,35C212.7,26.3,225,23.1,237.7,26.3z	 M153.5,2.1v5.3h28.9h28.9V2.1v-5.3h-28.9h-28.9V2.1z M222.7,45.2v8.5h-8.5h-8.5v5.7v5.7h8.5h8.5v8.5v8.5h5.7h5.7v-8.5v-8.5h8.5h8.5	v-5.7v-5.7h-8.5h-8.5v-8.5v-8.5h-5.7h-5.7V45.2z"/></svg>