<svg version="1.1" id="Layer_1" xmlns="http://www.w3.org/2000/svg" viewBox="0 0 60 60"><path fill="#000" d="M54,10H43.1V7.8c0-1.2-1-2.2-2.2-2.2l0,0H19.1c-1.2,0-2.2,1-2.2,2.2l0,0V10H6c-1.2,0-2.2,1-2.2,2.2		s1,2.2,2.2,2.2h4.4v32.7c0,3.6,2.9,6.5,6.5,6.5h26.2c3.6,0,6.5-2.9,6.5-6.5V14.4H54c1.2,0,2.2-1,2.2-2.2S55.2,10,54,10L54,10z		 M45.3,47.1c0,1.2-1,2.2-2.2,2.2H16.9c-1.2,0-2.2-1-2.2-2.2V14.4h30.6L45.3,47.1L45.3,47.1z"/><path fill="#000" d="M23.5,42.8c1.2,0,2.2-1,2.2-2.2V23.1c0-1.2-1-2.2-2.2-2.2s-2.2,1-2.2,2.2v17.5C21.3,41.8,22.3,42.8,23.5,42.8z"/><path fill="#000" d="M36.5,42.8c1.2,0,2.2-1,2.2-2.2V23.1c0-1.2-1-2.2-2.2-2.2s-2.2,1-2.2,2.2v17.5C34.4,41.8,35.3,42.8,36.5,42.8z"/></svg>