<?xml version="1.0" encoding="utf-8"?>
<!-- Generator: Adobe Illustrator 19.1.0, SVG Export Plug-In . SVG Version: 6.00 Build 0)  -->
<svg version="1.1" id="Layer_1" xmlns="http://www.w3.org/2000/svg" xmlns:xlink="http://www.w3.org/1999/xlink" x="0px" y="0px"
	 viewBox="0 0 60 60" style="enable-background:new 0 0 60 60;" xml:space="preserve">
<path d="M53.1,19.2c-0.4-1-0.9-1.7-1.5-2.3l-8.5-8.5c-0.6-0.6-1.3-1.1-2.3-1.5c-1-0.4-1.9-0.6-2.7-0.6H9.9c-0.8,0-1.5,0.3-2.1,0.8
	C7.3,7.8,7,8.4,7,9.2v40.8c0,0.8,0.3,1.5,0.8,2.1C8.5,52.7,9.1,53,9.9,53h40.8c0.8,0,1.5-0.3,2.1-0.8c0.6-0.6,0.8-1.2,0.8-2.1V21.9
	C53.7,21.1,53.5,20.2,53.1,19.2z M26.5,11.2c0-0.3,0.1-0.5,0.3-0.7c0.2-0.2,0.4-0.3,0.7-0.3h5.8c0.3,0,0.5,0.1,0.7,0.3
	c0.2,0.2,0.3,0.4,0.3,0.7v9.7c0,0.3-0.1,0.5-0.3,0.7c-0.2,0.2-0.4,0.3-0.7,0.3h-5.8c-0.3,0-0.5-0.1-0.7-0.3
	c-0.2-0.2-0.3-0.4-0.3-0.7V11.2L26.5,11.2z M42,49.1H18.7V37.4H42V49.1z M49.8,49.1h-3.9l0,0V36.5c0-0.8-0.3-1.5-0.8-2.1
	c-0.6-0.6-1.2-0.8-2.1-0.8H17.7c-0.8,0-1.5,0.3-2.1,0.8c-0.6,0.6-0.8,1.2-0.8,2.1v12.6h-3.9V10.2h3.9v12.6c0,0.8,0.3,1.5,0.8,2.1
	c0.6,0.6,1.2,0.8,2.1,0.8h17.5c0.8,0,1.5-0.3,2.1-0.8c0.6-0.6,0.8-1.2,0.8-2.1V10.2c0.3,0,0.7,0.1,1.2,0.3c0.5,0.2,0.8,0.4,1,0.6
	l8.5,8.5c0.2,0.2,0.4,0.5,0.6,1.1c0.2,0.5,0.3,0.9,0.3,1.2L49.8,49.1L49.8,49.1z"/>
</svg>
