<svg version="1.1" id="Capa_1" xmlns="http://www.w3.org/2000/svg" viewBox="-234 36.2 489.8 489.8"><path fill="#ffffff" d="M-195,315.1l29.5,0.2c4.4,22.7,13.1,44.7,26.4,64.7l-20.9,20.8c-7.5,7.4-7.5,19.5-0.2,27l22.6,22.9c7.4,7.5,19.5,7.5,27,0.2 l20.9-20.8c19.8,13.4,41.8,22.5,64.5,27.1l-0.2,29.5c-0.1,10.6,8.4,19.1,19,19.2l32.1,0.2c10.6,0.1,19.1-8.4,19.2-19l0.2-29.5 c22.7-4.4,44.7-13.1,64.7-26.4l20.8,20.9c7.4,7.5,19.5,7.5,27,0.2l22.9-22.6c7.5-7.4,7.5-19.5,0.2-27l-20.8-20.9 c13.4-19.8,22.5-41.8,27.1-64.5l29.5,0.2c10.6,0.1,19.1-8.4,19.2-19l0.2-32.1c0.1-10.6-8.4-19.1-19-19.2l-29.5-0.2 c-4.4-22.7-13.1-44.7-26.4-64.7l20.9-20.8c7.5-7.4,7.5-19.5,0.2-27l-22.6-22.9c-7.4-7.5-19.5-7.5-27-0.2l-20.9,20.8 c-19.8-13.4-41.8-22.5-64.5-27.1l0.2-29.5c0.1-10.6-8.4-19.1-19-19.2l-32.1-0.2c-10.6-0.1-19.1,8.4-19.2,19l-0.3,29.5 c-22.8,4.4-44.8,13.1-64.7,26.4l-20.8-20.9c-7.4-7.5-19.5-7.5-27-0.2l-22.8,22.6c-7.5,7.4-7.5,19.5-0.2,27l20.8,20.9 c-13.4,19.8-22.5,41.8-27.1,64.5l-29.5-0.2c-10.6-0.1-19.1,8.4-19.2,19l-0.2,32.1C-214.1,306.4-205.6,315-195,315.1z M-49.3,220.2 c33.6-33.2,87.7-33,120.9,0.6s33,87.7-0.6,120.9s-87.7,33-120.9-0.6S-83,253.5-49.3,220.2z"/></svg>