<?xml version="1.0" encoding="utf-8"?>
<!-- Generator: Adobe Illustrator 19.1.0, SVG Export Plug-In . SVG Version: 6.00 Build 0)  -->
<svg version="1.1" id="Layer_1" xmlns="http://www.w3.org/2000/svg" xmlns:xlink="http://www.w3.org/1999/xlink" x="0px" y="0px"
	 viewBox="0 0 60 60" style="enable-background:new 0 0 60 60;" xml:space="preserve">
<style type="text/css">
	.st0{fill:#1D1D1D;}
</style>
<path id="_xD83D__xDD39_-Icon-Color" class="st0" d="M47,25.5c-1.6-8-8.6-14-17-14c-6.7,0-12.5,3.8-15.4,9.4
	c-7,0.7-12.4,6.6-12.4,13.8c0,7.7,6.2,13.9,13.9,13.9h30.1c6.4,0,11.6-5.2,11.6-11.6C57.8,30.8,53,25.9,47,25.5z M46.2,43.9H16.1
	c-5.1,0-9.3-4.1-9.3-9.3c0-4.7,3.5-8.7,8.2-9.2l2.5-0.3l1.2-2.2c2.2-4.2,6.5-6.9,11.3-6.9c6.1,0,11.3,4.3,12.5,10.3l0.7,3.5l3.5,0.3
	c3.6,0.2,6.4,3.3,6.4,6.9C53.1,40.8,50,43.9,46.2,43.9z M20.7,32.3h5.9v6.9h6.7v-6.9h5.9L30,23.1L20.7,32.3z"/>
</svg>
