<?xml version="1.0" encoding="utf-8"?>
<!-- Generator: Adobe Illustrator 19.1.0, SVG Export Plug-In . SVG Version: 6.00 Build 0)  -->
<svg version="1.1" id="Layer_1" xmlns="http://www.w3.org/2000/svg" xmlns:xlink="http://www.w3.org/1999/xlink" x="0px" y="0px"
	 viewBox="0 0 60 60" style="enable-background:new 0 0 60 60;" xml:space="preserve">
<path d="M30,46.2c-13.7,0-24.4-14.5-24.9-15.2c-0.5-0.6-0.5-1.5,0-2.1C5.6,28.3,16.3,13.8,30,13.8c13.7,0,24.4,14.5,24.9,15.2
	c0.5,0.6,0.5,1.5,0,2.1C54.4,31.7,43.7,46.2,30,46.2z M8.9,30c2.6,3.2,11.2,12.6,21.1,12.6c9.9,0,18.5-9.4,21.1-12.6
	C48.5,26.8,39.9,17.4,30,17.4C20.1,17.4,11.5,26.8,8.9,30z M30,39c-5,0-9-4-9-9s4-9,9-9s9,4,9,9S35,39,30,39z M30,24.6
	c-3,0-5.4,2.4-5.4,5.4c0,3,2.4,5.4,5.4,5.4c3,0,5.4-2.4,5.4-5.4C35.4,27,33,24.6,30,24.6z"/>
</svg>
